<svg width="491" height="193" xmlns="http://www.w3.org/2000/svg">
 <style type="text/css">.st0{fill:#30B7C1;}</style>

 <g>
  <title>background</title>
  <rect fill="none" id="canvas_background" height="195" width="493" y="-1" x="-1"/>
 </g>
 <g>
  <title>Layer 1</title>
  <path id="svg_1" d="m480.1,31.77777c-5.1,-9.4 -11.9,-16.9 -20.3,-22.4c-8.4,-5.6 -17.2,-8.3 -26.5,-8.3l-62.3,0c-4.8,0 -8.7,1.6 -11.9,4.8c-3.2,3.2 -4.8,7.2 -4.8,11.9l0,0.3l-36.9,0l0,-2.1c0,-4.7 -3.8,-8.6 -8.6,-8.6c-4.7,0 -8.6,3.8 -8.6,8.6l0,2.1l-5.1,0l0,-2.1c0,-4.7 -3.8,-8.6 -8.6,-8.6c-4.7,0 -8.6,3.8 -8.6,8.6l0,2.1l-4.9,0l0,-2.1c0,-4.7 -3.8,-8.6 -8.6,-8.6c-4.7,0 -8.6,3.8 -8.6,8.6l0,2.1l-4.8,0l0,-2.1c0,-4.7 -3.8,-8.6 -8.6,-8.6c-4.7,0 -8.6,3.8 -8.6,8.6l0,2.1l-76.2,0l0,-0.3c0,-4.9 -1.6,-8.9 -4.7,-12c-3.1,-3.1 -7.2,-4.6 -12.3,-4.6c-4.6,0 -8.6,1.6 -12,4.8c-3.5,3.2 -5.2,7.2 -5.2,11.9l0,62.9l-87.2,0l0,-63c0,-4.7 -1.6,-8.7 -4.9,-11.9c-3.3,-3.2 -7.2,-4.8 -11.8,-4.8c-5.1,0 -9.3,1.6 -12.6,4.8c-3.3,3.1 -4.9,7.1 -4.9,11.9l0,158.1c0,4.7 1.6,8.7 4.8,11.9c3.2,3.2 7.3,4.8 12.2,4.8c4.6,0 8.6,-1.6 12,-4.8c3.5,-3.2 5.2,-7.2 5.2,-11.9l0,-63.8l87.3,0l0,63.8c0,4.7 1.6,8.7 4.9,11.9c3.3,3.2 7.2,4.8 11.8,4.8c5.1,0 9.3,-1.6 12.6,-4.8c3.3,-3.2 4.9,-7.2 4.9,-11.9l0,-0.3l36.8,0l0,2.1c0,4.7 3.8,8.6 8.6,8.6c4.7,0 8.6,-3.8 8.6,-8.6l0,-2.1l5.1,0l0,2.1c0,4.7 3.8,8.6 8.6,8.6c4.7,0 8.6,-3.8 8.6,-8.6l0,-2.1l5.1,0l0,2.1c0,4.7 3.8,8.6 8.6,8.6c4.7,0 8.6,-3.8 8.6,-8.6l0,-2.1l5.1,0l0,2.1c0,4.7 3.8,8.6 8.6,8.6c4.7,0 8.6,-3.8 8.6,-8.6l0,-2.1l76.1,0l0,0.3c0,4.7 1.5,8.7 4.4,11.9c2.9,3.2 6.7,4.8 11.2,4.8c4.7,0 8.6,-1.5 11.5,-4.6c2.9,-3.1 4.4,-7.1 4.4,-12l0,-51.7l47.6,0c9.3,0 18.2,-2.8 26.5,-8.4c8.4,-5.6 15.1,-13.1 20.3,-22.6c5.1,-9.5 7.7,-19.7 7.7,-30.6c-0.5,-11.2 -3.1,-21.5 -8.2,-30.9zm-125.8,139.5l-76.1,0l0,-2.1c0,-4.7 -3.8,-8.6 -8.6,-8.6c-4.7,0 -8.6,3.8 -8.6,8.6l0,2.1l-5,0l0,-2.1c0,-4.7 -3.8,-8.6 -8.6,-8.6c-4.7,0 -8.6,3.8 -8.6,8.6l0,2.1l-5.1,0l0,-2.1c0,-4.7 -3.8,-8.6 -8.6,-8.6c-4.7,0 -8.6,3.8 -8.6,8.6l0,2.1l-5.1,0l0,-2.1c0,-4.7 -3.8,-8.6 -8.6,-8.6c-4.7,0 -8.6,3.8 -8.6,8.6l0,2.1l-36.8,0l0,-34l36.8,0l0,2.1c0,4.7 3.8,8.6 8.6,8.6c4.7,0 8.6,-3.8 8.6,-8.6l0,-2.1l5.1,0l0,2.1c0,4.7 3.8,8.6 8.6,8.6c4.7,0 8.6,-3.8 8.6,-8.6l0,-2.1l5.1,0l0,2.1c0,4.7 3.8,8.6 8.6,8.6c4.7,0 8.6,-3.8 8.6,-8.6l0,-2.1l44.3,0l0,2.1c0,4.7 3.8,8.6 8.6,8.6c4.7,0 8.6,-3.8 8.6,-8.6l0,-2.1l36.9,0l0,34l-0.1,0zm0,-38.3l-36.9,0l0,-2.2c0,-4.7 -3.8,-8.6 -8.6,-8.6c-4.7,0 -8.6,3.8 -8.6,8.6l0,2.1l-44.2,0l0,-2.1c0,-4.7 -3.8,-8.6 -8.6,-8.6c-4.7,0 -8.6,3.8 -8.6,8.6l0,2.1l-5.1,0l0,-2.1c0,-4.7 -3.8,-8.6 -8.6,-8.6c-4.7,0 -8.6,3.8 -8.6,8.6l0,2.1l-5.1,0l0,-2.1c0,-4.7 -3.8,-8.6 -8.6,-8.6c-4.7,0 -8.6,3.8 -8.6,8.6l0,2.1l-36.8,0l0,-34l36.8,0l0,2.1c0,4.7 3.8,8.6 8.6,8.6c4.7,0 8.6,-3.8 8.6,-8.6l0,-2.1l5.1,0l0,2.1c0,4.7 3.8,8.6 8.6,8.6c4.7,0 8.6,-3.8 8.6,-8.6l0,-2.1l44.3,0l0,2.1c0,4.7 3.8,8.6 8.6,8.6c4.7,0 8.6,-3.8 8.6,-8.6l0,-2.1l5.1,0l0,2.1c0,4.7 3.8,8.6 8.6,8.6c4.7,0 8.6,-3.8 8.6,-8.6l0,-2.1l36.9,0l0,34.1l-0.1,0zm0,-38.3l-36.9,0l0,-2.1c0,-4.7 -3.8,-8.6 -8.6,-8.6c-4.7,0 -8.6,3.8 -8.6,8.6l0,2.1l-5.1,0l0,-2.1c0,-4.7 -3.8,-8.6 -8.6,-8.6c-4.7,0 -8.6,3.8 -8.6,8.6l0,2.1l-44.3,0l0,-2.1c0,-4.7 -3.8,-8.6 -8.6,-8.6c-4.7,0 -8.6,3.8 -8.6,8.6l0,2.1l-5.1,0l0,-2.1c0,-4.7 -3.8,-8.6 -8.6,-8.6c-4.7,0 -8.6,3.8 -8.6,8.6l0,2.1l-36.8,0l0,-34l36.8,0l0,2.1c0,4.7 3.8,8.6 8.6,8.6c4.7,0 8.6,-3.8 8.6,-8.6l0,-2.1l44.3,0l0,2.1c0,4.7 3.8,8.6 8.6,8.6c4.7,0 8.6,-3.8 8.6,-8.6l0,-2.1l5.1,0l0,2.1c0,4.7 3.8,8.6 8.6,8.6c4.7,0 8.6,-3.8 8.6,-8.6l0,-2.1l5.1,0l0,2.1c0,4.7 3.8,8.6 8.6,8.6c4.7,0 8.6,-3.8 8.6,-8.6l0,-2.1l36.9,0l0,34zm0,-38.4l-36.9,0l0,-2.1c0,-4.7 -3.8,-8.6 -8.6,-8.6c-4.7,0 -8.6,3.8 -8.6,8.6l0,2.1l-5.1,0l0,-2.1c0,-4.7 -3.8,-8.6 -8.6,-8.6c-4.7,0 -8.6,3.8 -8.6,8.6l0,2.1l-4.9,0l0,-2.1c0,-4.7 -3.8,-8.6 -8.6,-8.6c-4.7,0 -8.6,3.8 -8.6,8.6l0,2.1l-44.3,0l0,-2.1c0,-4.7 -3.8,-8.6 -8.6,-8.6c-4.7,0 -8.6,3.8 -8.6,8.6l0,2.1l-36.8,0l0,-34l76.2,0l0,2.1c0,4.7 3.8,8.6 8.6,8.6c4.7,0 8.6,-3.8 8.6,-8.6l0,-2.1l4.9,0l0,2.1c0,4.7 3.8,8.6 8.6,8.6c4.7,0 8.6,-3.8 8.6,-8.6l0,-2.1l5.1,0l0,2.1c0,4.7 3.8,8.6 8.6,8.6c4.7,0 8.6,-3.8 8.6,-8.6l0,-2.1l5.1,0l0,2.1c0,4.7 3.8,8.6 8.6,8.6c4.7,0 8.6,-3.8 8.6,-8.6l0,-2.1l36.9,0l0,34l-0.2,0zm97.5,21c-2.1,4.7 -4.8,8.4 -8.2,11.4c-3.4,2.9 -6.8,4.4 -10.3,4.4l-47.6,0l0,-60.5l47.6,0c3.5,0 6.9,1.4 10.3,4.2c3.4,2.8 6.1,6.6 8.2,11.2c2.1,4.6 3.1,9.5 3.1,14.6c0.1,5.1 -1,10 -3.1,14.7z" class="st0"/>
  <rect stroke="null" id="svg_3" width="7.407391" y="96" x="492.592056" fill-opacity="null" stroke-opacity="null" stroke-width="null" fill="null"/>
 </g>
</svg>