<svg width="600" height="450" xmlns="http://www.w3.org/2000/svg">
 <style type="text/css">.st0{opacity:0.2;fill:#E51A1A;}
	.st1{fill:#002642;}
	.st2{fill:#30B7C1;}
	.st3{opacity:0.2;fill:#FFFFFF;}
	.st4{opacity:0.2;}</style>

 <g>
  <title>background</title>
  <rect fill="none" id="canvas_background" height="452" width="602" y="-1" x="-1"/>
 </g>
 <g>
  <title>Layer 1</title>
  <path id="svg_1" d="m373.2,224.2l107.7,107.7c3.4,3.4 3.4,8.9 0,12.3l-52.3,52.3c-3.4,3.4 -8.9,3.4 -12.3,0l-107.7,-107.7c-3.4,-3.4 -8.9,-3.4 -12.3,0l-107.8,107.7c-3.4,3.4 -8.9,3.4 -12.3,0l-52.3,-52.3c-3.4,-3.4 -3.4,-8.9 0,-12.3l107.7,-107.7c3.4,-3.4 3.4,-8.9 0,-12.3l-107.7,-107.7c-3.4,-3.4 -3.4,-8.9 0,-12.3l52.3,-52.3c3.4,-3.4 8.9,-3.4 12.3,0l107.7,107.7c3.4,3.4 8.9,3.4 12.3,0l107.7,-107.8c3.4,-3.4 8.9,-3.4 12.3,0l52.3,52.3c3.4,3.4 3.4,8.9 0,12.3l-107.6,107.8c-3.4,3.4 -3.4,8.9 0,12.3z" class="st0"/>
  <g id="svg_2">
   <path id="svg_3" d="m496.8,293.4l-388.3,0c-1.9,0 -3.4,-1.5 -3.4,-3.4l0,-5.7c0,-1.9 1.5,-3.4 3.4,-3.4l388.3,0c1.9,0 3.4,1.5 3.4,3.4l0,5.7c0,1.9 -1.5,3.4 -3.4,3.4z" class="st1"/>
   <g id="svg_4">
    <path id="svg_5" d="m393,121.9l0,159l-23.2,0l0,-58.9l-3.9,0.7l-50.4,8.7l0.2,1.1c0.7,3.2 -1.3,6.5 -4.5,7.2c-0.5,0.1 -0.9,0.2 -1.4,0.2c-0.7,0 -1.3,-0.1 -1.9,-0.3c-1.9,-0.7 -3.4,-2.2 -3.9,-4.3l-0.4,-1.7l-3.6,0.4l-2.3,0.4l0,-0.7l-0.2,-2.4l5.5,-0.9l-0.2,-0.9c-0.7,-3 1,-6.1 3.9,-7c0.2,-0.1 0.4,-0.1 0.6,-0.2c3.2,-0.7 6.4,1.3 7.2,4.5l0.2,1l0.1,0.6l55,-9.4l0,-23.3l-7,0l0,1.4c0,1.7 -0.7,3.2 -1.8,4.2c-1.1,1.1 -2.6,1.8 -4.2,1.8c-0.7,0 -1.3,-0.1 -1.9,-0.3c-2.4,-0.8 -4.1,-3 -4.1,-5.7l0,-1.4l-6,0c-0.3,-1 -0.6,-2.1 -0.8,-3.1l6.8,0l0,-1.4c0,-2.6 1.7,-4.9 4.1,-5.7c0.6,-0.2 1.3,-0.3 1.9,-0.3c3.3,0 6,2.7 6,6l0,1.4l7,0l0,-23.3l-3.9,0.1l-79.6,1.5c0,0 0,-0.1 0,-0.1c0.1,-1 0.1,-2 0.2,-3l83.3,-1.6l0,-23.3l-3.9,0.4l-58.8,5.8l0,-3.1l62.6,-6.2l0,-17.8c0,-5.8 4.2,-10.5 9.7,-11.5c0.6,-0.1 1.3,-0.2 1.9,-0.2c3.2,0 6.1,1.3 8.2,3.4c2.2,2.1 3.5,5 3.5,8.2z" class="st2"/>
    <path id="svg_6" d="m281.8,256.4l59,13.2l0,3.1l-3.9,-0.9l-55.8,-12.5l-0.2,0.8l-0.1,0.4c-0.6,2.8 -3.1,4.7 -5.8,4.7c-0.4,0 -0.9,-0.1 -1.4,-0.2c-0.2,0 -0.4,-0.1 -0.6,-0.2c-2.9,-1 -4.6,-4 -3.9,-7l0.3,-1.2l-11.8,-2.7l-0.2,0.8l-0.2,0.7c-0.6,2.8 -3.1,4.7 -5.8,4.7c-0.4,0 -0.9,-0.1 -1.4,-0.2c-0.2,0 -0.4,-0.1 -0.6,-0.2c-2.9,-1 -4.6,-4 -3.9,-7l0.3,-1.4l-10.3,-2.3l0,31.7l-23.2,0l0,-159c0,-5.8 4.2,-10.5 9.7,-11.5c0.6,-0.1 1.3,-0.2 1.9,-0.2c3.2,0 6.1,1.3 8.2,3.4c2.1,2.1 3.4,5 3.4,8.2l0,17.8l65.3,7l0,3.1l-3.9,-0.4l-61.5,-6.6l0,23.3l21.2,1.6c0,1 0.1,2.1 0.1,3.1l-3.9,-0.3l-17.4,-1.3l0,23.3l32.1,2.3l3.8,0.3l0.2,-1.4c0.4,-2.2 2,-4 4,-4.6c0.9,-0.3 1.9,-0.4 3,-0.2c3.3,0.6 5.4,3.7 4.9,7l0,0.2l56.6,4c0.2,1.1 0.5,2.1 0.8,3.1l-3.9,-0.3l-54,-3.8l0,0.3l-0.4,2.3c-0.5,2.9 -3,5 -5.9,5c-0.3,0 -0.7,0 -1,-0.1c-0.3,-0.1 -0.6,-0.1 -0.9,-0.2c-2.8,-0.9 -4.5,-3.8 -4,-6.7l0.2,-1.3l-35.4,-2.5l0,23.3l46.2,5.4l0.2,3.1l-3.9,-0.5l-42.5,-5l0,24.1l7.3,1.6l3.7,0.8l0.3,-1.3c0.5,-2.1 2,-3.7 3.9,-4.3c1,-0.4 2.2,-0.4 3.3,-0.2c3.2,0.7 5.2,4 4.5,7.2l-0.3,1.2l8.2,1.8l3.7,0.8l0,0l0.4,-1.5c0.5,-2.1 2,-3.7 3.9,-4.3c1,-0.4 2.2,-0.4 3.3,-0.2c3.2,0.7 5.2,4 4.5,7.2l-0.4,1.6z" class="st2"/>
    <path id="svg_7" d="m389.1,121.9l0,159l-19.3,0l0,-58.9l-3.9,0.7l0,-0.7l-54.3,9.3l0.2,1.1c0.7,3 -1,6.1 -3.9,7c-1.9,-0.7 -3.4,-2.2 -3.9,-4.3l-0.4,-1.7l-3.6,0.6l-0.1,-0.6l-2.2,0.4l-0.2,-2.4l5.5,-0.9l-0.2,-0.9c-0.7,-3 1,-6.1 3.9,-7c1.9,0.7 3.4,2.2 3.9,4.3l0.4,1.6l3.7,-0.6l0.1,0.6l55,-9.4l0,-23.3l-10.8,0l0,1.4c0,1.7 -0.7,3.2 -1.8,4.2c-0.6,0.6 -1.4,1.1 -2.3,1.4c-2.4,-0.8 -4.1,-3 -4.1,-5.7l0,-1.4l-6,0c-0.3,-1 -0.6,-2.1 -0.8,-3.1l6.8,0l0,-1.4c0,-2.6 1.7,-4.9 4.1,-5.7c2.4,0.8 4.1,3 4.1,5.7l0,1.4l10.8,0l0,-23.3l-3.9,0.1l0,-0.1l-79.6,1.5c0.1,-1 0.1,-2 0.2,-3l83.3,-1.6l0,-23.3l-3.9,0.4l0,-0.4l-58.8,5.8l0,-2.7l62.6,-6.2l0,-17.8c0,-5.8 4.2,-10.5 9.7,-11.5c2.4,0.4 4.6,1.6 6.3,3.2c2.1,2.1 3.4,5 3.4,8.2z" class="st3"/>
    <path id="svg_8" d="m277.9,256.4l59,13.2l0,2.2l-55.8,-12.5l-0.2,0.8l-3.7,-0.8l-0.3,1.3c-0.5,2.1 -2,3.7 -3.9,4.3c-2.9,-1 -4.6,-4 -3.9,-7l0.3,-1.2l-11.8,-2.7l-0.2,0.8l-3.7,-0.8l-0.3,1.5c-0.5,2.1 -2,3.7 -3.9,4.3c-2.9,-1 -4.6,-4 -3.9,-7l0.3,-1.4l-10.3,-2.3l0,0.9l-3.9,-0.9l0,31.7l-19.3,0l0,-159c0,-5.8 4.2,-10.5 9.7,-11.5c2.4,0.4 4.6,1.6 6.3,3.2c2.1,2.1 3.4,5 3.4,8.2l0,17.8l65.3,7l0,3.1l-61.5,-6.6l-3.9,-0.4l0,23.3l21.2,1.6c0,0.9 0.1,1.9 0.1,2.8c0,0.1 0,0.2 0,0.3l-17.5,-1.3l-3.9,-0.3l0,23.3l35.9,2.5l0,-0.3l3.8,0.3l0.2,-1.4c0.4,-2.2 2,-4 4,-4.6c2.8,0.9 4.5,3.8 4,6.7l0,0.2l56.6,4c0.2,1 0.4,1.9 0.7,2.8l-54.1,-3.5l-3.8,-0.3l-0.4,2.5c-0.4,2.2 -2,4 -4,4.6c-2.8,-0.9 -4.5,-3.8 -4,-6.7l0.2,-1.3l-35.4,-2.5l0,0.3l-3.9,-0.3l0,23.3l46.2,5.4l0.1,2.6l-42.5,-5l0,0.5l-3.9,-0.5l0,24.1l10.9,2.5l0.2,-0.8l3.7,0.8l0.3,-1.3c0.5,-2.1 2,-3.7 3.9,-4.3c2.9,1 4.6,4 3.9,7l-0.3,1.2l11.8,2.7l0,0l0.2,-0.8l3.7,0.8l0,0l0.4,-1.5c0.5,-2.1 2,-3.7 3.9,-4.3c2.9,1 4.6,4 3.9,7l0.1,1.7z" class="st3"/>
   </g>
   <path id="svg_9" d="m244.7,309.7l0,5.8c0,1.7 -0.7,3.2 -1.8,4.2c-1.1,1.1 -2.6,1.8 -4.2,1.8c-0.7,0 -1.3,-0.1 -1.9,-0.3c-2.4,-0.8 -4.1,-3 -4.1,-5.7l0,-5.8c0,-2.6 1.7,-4.9 4.1,-5.7c0.6,-0.2 1.3,-0.3 1.9,-0.3c3.3,0 6,2.7 6,6z" class="st2"/>
   <path id="svg_10" d="m392.2,321.4c-0.1,0.9 -0.8,1.7 -2.2,2.4l-1.3,0.6l-3.2,1.5l-0.7,0.3c-2,0.9 -4.7,1.3 -7.2,0.9c-1.2,-0.2 -2.4,-0.5 -3.4,-0.9c-2.9,-1.4 -2.9,-3.7 0,-5.1l5.1,-2.5c1,-0.5 2.1,-0.8 3.4,-0.9c0.6,-0.1 1.3,-0.1 1.9,-0.1c1.9,0 3.8,0.4 5.3,1.1c1.3,0.6 2,1.4 2.2,2.2c0.2,0.2 0.2,0.3 0.1,0.5z" class="st4"/>
   <path id="svg_11" d="m414.6,324.5c0,2.1 -3.4,3.8 -7.5,3.8l-7.3,0c-4.1,0 -7.5,-1.7 -7.5,-3.8c0,0 0,0 0,-0.1c0,-1.3 1.4,-2.5 3.5,-3.1c1.2,-0.4 2.6,-0.6 4.1,-0.6l7.3,0c2.1,0 4,0.4 5.3,1.1c1.2,0.7 2.1,1.7 2.1,2.7z" class="st4"/>
   <path id="svg_12" d="m388.8,310.6c-0.1,1.8 -0.8,3.6 -2.2,5l-1.3,1.3l-3.2,3.2l-0.7,0.7c-2,2 -4.7,2.6 -7.2,2c-1.2,-0.3 -2.4,-1 -3.4,-2c-2.9,-2.9 -2.9,-7.7 0,-10.7l5.1,-5.2c1,-1 2.1,-1.6 3.4,-2c0.6,-0.2 1.3,-0.3 1.9,-0.3c1.9,0 3.8,0.7 5.3,2.2c1.3,1.3 2,2.9 2.2,4.5c0.1,0.5 0.1,0.9 0.1,1.3z" class="st2"/>
   <path id="svg_13" d="m311.9,358.2c0,2.5 -4.3,4.5 -9.6,4.5l-9.3,0c-5.3,0 -9.6,-2 -9.6,-4.5c0,-2.5 4.3,-4.5 9.6,-4.5l9.3,0c2.7,0 5.1,0.5 6.8,1.3c1.7,0.8 2.8,1.9 2.8,3.2z" class="st4"/>
   <path id="svg_14" d="m305.7,348.7c0,5.3 -4.3,9.7 -9.6,9.7l-9.3,0c-5.3,0 -9.6,-4.3 -9.6,-9.7c0,-5.3 4.3,-9.7 9.6,-9.7l9.3,0c2.7,0 5.1,1.1 6.8,2.8c1.7,1.8 2.8,4.2 2.8,6.9z" class="st2"/>
   <path id="svg_15" d="m407.6,316.9c0,4.2 -3.4,7.5 -7.5,7.5l-7.3,0c-4.1,0 -7.5,-3.4 -7.5,-7.5c0,0 0,-0.1 0,-0.1c0,-2.6 1.4,-4.9 3.5,-6.2c1.2,-0.8 2.6,-1.2 4.1,-1.2l7.3,0c2.1,0 4,0.8 5.3,2.2c1.3,1.3 2.1,3.2 2.1,5.3z" class="st2"/>
   <path id="svg_16" d="m240.8,309.7l0,5.8c0,1.7 -0.7,3.2 -1.8,4.2c-0.6,0.6 -1.4,1.1 -2.3,1.4c-2.4,-0.8 -4.1,-3 -4.1,-5.7l0,-5.8c0,-2.6 1.7,-4.9 4.1,-5.7c2.4,0.9 4.1,3.2 4.1,5.8z" class="st3"/>
   <path id="svg_17" d="m384.9,310.6c-0.1,1.8 -0.8,3.6 -2.2,5l-1.3,1.3l-3.9,3.9c-1,1 -2.1,1.6 -3.4,2c-1.2,-0.3 -2.4,-1 -3.4,-2c-2.9,-2.9 -2.9,-7.7 0,-10.7l5.1,-5.2c1,-1 2.1,-1.6 3.4,-2c1.2,0.3 2.4,1 3.4,2c1.7,1.5 2.4,3.6 2.3,5.7z" class="st3"/>
   <path id="svg_18" d="m301.8,348.7c0,5.3 -4.3,9.7 -9.6,9.7l-5.5,0c-5.3,0 -9.6,-4.3 -9.6,-9.7c0,-5.3 4.3,-9.7 9.6,-9.7l5.5,0c2.7,0 5.1,1.1 6.8,2.8c1.8,1.8 2.8,4.2 2.8,6.9z" class="st3"/>
   <path id="svg_19" d="m266.4,349c0,2 -3.5,3.6 -7.8,3.6l-7.5,0c-4.3,0 -7.8,-1.6 -7.8,-3.6c0,-2 3.5,-3.6 7.8,-3.6l7.5,0c2.1,0 4.1,0.4 5.5,1.1c1.4,0.6 2.3,1.5 2.3,2.5z" class="st4"/>
   <path id="svg_20" d="m261.4,341.3c0,4.3 -3.5,7.8 -7.8,7.8l-7.5,0c-4.3,0 -7.8,-3.5 -7.8,-7.8c0,-4.3 3.5,-7.8 7.8,-7.8l7.5,0c2.1,0 4.1,0.9 5.5,2.3c1.4,1.4 2.3,3.4 2.3,5.5z" class="st2"/>
   <path id="svg_21" d="m258.3,341.3c0,4.3 -3.5,7.8 -7.8,7.8l-4.4,0c-4.3,0 -7.8,-3.5 -7.8,-7.8c0,-4.3 3.5,-7.8 7.8,-7.8l4.4,0c2.1,0 4.1,0.9 5.5,2.3c1.4,1.4 2.3,3.4 2.3,5.5z" class="st3"/>
   <path id="svg_22" d="m218.8,320.7c0,2 -3.5,3.6 -7.8,3.6l-7.5,0c-4.3,0 -7.8,-1.6 -7.8,-3.6c0,-2 3.5,-3.6 7.8,-3.6l7.5,0c2.1,0 4.1,0.4 5.5,1.1c1.4,0.6 2.3,1.5 2.3,2.5z" class="st4"/>
   <path id="svg_23" d="m213.8,313c0,4.3 -3.5,7.8 -7.8,7.8l-7.5,0c-4.3,0 -7.8,-3.5 -7.8,-7.8c0,-4.3 3.5,-7.8 7.8,-7.8l7.5,0c2.1,0 4.1,0.9 5.5,2.3c1.5,1.4 2.3,3.4 2.3,5.5z" class="st2"/>
   <path id="svg_24" d="m210.7,313c0,4.3 -3.5,7.8 -7.8,7.8l-4.4,0c-4.3,0 -7.8,-3.5 -7.8,-7.8c0,-4.3 3.5,-7.8 7.8,-7.8l4.4,0c2.1,0 4.1,0.9 5.5,2.3c1.5,1.4 2.3,3.4 2.3,5.5z" class="st3"/>
   <path id="svg_25" d="m333.6,320.7c0,2 -3.5,3.6 -7.8,3.6l-7.5,0c-4.3,0 -7.8,-1.6 -7.8,-3.6c0,-2 3.5,-3.6 7.8,-3.6l7.5,0c2.1,0 4.1,0.4 5.5,1.1c1.5,0.6 2.3,1.5 2.3,2.5z" class="st4"/>
   <path id="svg_26" d="m328.7,313c0,4.3 -3.5,7.8 -7.8,7.8l-7.5,0c-4.3,0 -7.8,-3.5 -7.8,-7.8c0,-4.3 3.5,-7.8 7.8,-7.8l7.5,0c2.1,0 4.1,0.9 5.5,2.3c1.4,1.4 2.3,3.4 2.3,5.5z" class="st2"/>
   <path id="svg_27" d="m325.5,313c0,4.3 -3.5,7.8 -7.8,7.8l-4.4,0c-4.3,0 -7.8,-3.5 -7.8,-7.8c0,-4.3 3.5,-7.8 7.8,-7.8l4.4,0c2.1,0 4.1,0.9 5.5,2.3c1.5,1.4 2.3,3.4 2.3,5.5z" class="st3"/>
   <path id="svg_28" d="m345.9,302.4c0,1.4 -2.4,2.5 -5.4,2.5l-5.2,0c-3,0 -5.4,-1.1 -5.4,-2.5c0,-1.4 2.4,-2.5 5.4,-2.5l5.2,0c1.5,0 2.8,0.3 3.8,0.7c1,0.5 1.6,1.1 1.6,1.8z" class="st4"/>
   <path id="svg_29" d="m342.5,297.1c0,3 -2.4,5.4 -5.4,5.4l-5.2,0c-3,0 -5.4,-2.4 -5.4,-5.4c0,-3 2.4,-5.4 5.4,-5.4l5.2,0c1.5,0 2.8,0.6 3.8,1.6c1,0.9 1.6,2.3 1.6,3.8z" class="st2"/>
   <path id="svg_30" d="m340.3,297.1c0,3 -2.4,5.4 -5.4,5.4l-3.1,0c-3,0 -5.4,-2.4 -5.4,-5.4c0,-3 2.4,-5.4 5.4,-5.4l3.1,0c1.5,0 2.8,0.6 3.8,1.6c1,0.9 1.6,2.3 1.6,3.8z" class="st3"/>
   <path id="svg_31" d="m310.8,298.1c0,1.4 -2.4,2.5 -5.4,2.5l-5.2,0c-3,0 -5.4,-1.1 -5.4,-2.5c0,-1.4 2.4,-2.5 5.4,-2.5l5.2,0c1.5,0 2.8,0.3 3.8,0.7c1,0.5 1.6,1.1 1.6,1.8z" class="st4"/>
   <path id="svg_32" d="m307.3,292.8c0,3 -2.4,5.4 -5.4,5.4l-5.2,0c-3,0 -5.4,-2.4 -5.4,-5.4c0,-3 2.4,-5.4 5.4,-5.4l5.2,0c1.5,0 2.8,0.6 3.8,1.6c1,1 1.6,2.3 1.6,3.8z" class="st2"/>
   <path id="svg_33" d="m305.1,292.8c0,3 -2.4,5.4 -5.4,5.4l-3.1,0c-3,0 -5.4,-2.4 -5.4,-5.4c0,-3 2.4,-5.4 5.4,-5.4l3.1,0c1.5,0 2.8,0.6 3.8,1.6c1,1 1.6,2.3 1.6,3.8z" class="st3"/>
   <path id="svg_34" d="m272.5,299.7c0,1.4 -2.4,2.5 -5.4,2.5l-5.2,0c-3,0 -5.4,-1.1 -5.4,-2.5c0,-1.4 2.4,-2.5 5.4,-2.5l5.2,0c1.5,0 2.8,0.3 3.8,0.7c1,0.4 1.6,1.1 1.6,1.8z" class="st4"/>
   <path id="svg_35" d="m269,294.4c0,3 -2.4,5.4 -5.4,5.4l-5.2,0c-3,0 -5.4,-2.4 -5.4,-5.4c0,-3 2.4,-5.4 5.4,-5.4l5.2,0c1.5,0 2.8,0.6 3.8,1.6c1,0.9 1.6,2.3 1.6,3.8z" class="st2"/>
   <path id="svg_36" d="m266.9,294.4c0,3 -2.4,5.4 -5.4,5.4l-3.1,0c-3,0 -5.4,-2.4 -5.4,-5.4c0,-3 2.4,-5.4 5.4,-5.4l3.1,0c1.5,0 2.8,0.6 3.8,1.6c1,0.9 1.6,2.3 1.6,3.8z" class="st3"/>
   <path id="svg_37" d="m403.7,316.9c0,4.2 -3.4,7.5 -7.5,7.5l-3.4,0c-4.1,0 -7.5,-3.4 -7.5,-7.5c0,0 0,-0.1 0,-0.1c0,-2.6 1.4,-4.9 3.5,-6.2c1.2,-0.8 2.6,-1.2 4.1,-1.2l3.4,0c2.1,0 4,0.8 5.3,2.2c1.3,1.3 2.1,3.2 2.1,5.3z" class="st3"/>
  </g>
 </g>
</svg>