<svg width="124" height="96" xmlns="http://www.w3.org/2000/svg">
 <g>
  <title>background</title>
  <rect x="-1" y="-1" width="126" height="98" id="canvas_background" fill="none"/>
 </g>

 <g>
  <title>Layer 1</title>
  <g id="svg_1">
   <path d="m112,0.35798l-100,0c-6.6,0 -12,5.4 -12,12s5.4,12 12,12l100,0c6.6,0 12,-5.4 12,-12s-5.4,-12 -12,-12z" id="svg_2" fill="#ffffff" stroke="#000" stroke-width="0"/>
   <path d="m111.998472,36.211181l-100,0c-6.6,0 -12,5.4 -12,12c0,6.6 5.4,12 12,12l100,0c6.6,0 12,-5.4 12,-12c0,-6.6 -5.4,-12 -12,-12z" id="svg_3" fill="#fff" stroke="#000" stroke-width="0"/>
   <path d="m112.193031,71.477694l-100,0c-6.6,0 -12,5.4 -12,12s5.4,12 12,12l100,0c6.59999,0 12,-5.4 12,-12s-5.40001,-12 -12,-12z" id="svg_4" fill="#fff" stroke="#000" stroke-width="0"/>
  </g>
  <g id="svg_5"/>
  <g id="svg_6"/>
  <g id="svg_7"/>
  <g id="svg_8"/>
  <g id="svg_9"/>
  <g id="svg_10"/>
  <g id="svg_11"/>
  <g id="svg_12"/>
  <g id="svg_13"/>
  <g id="svg_14"/>
  <g id="svg_15"/>
  <g id="svg_16"/>
  <g id="svg_17"/>
  <g id="svg_18"/>
  <g id="svg_19"/>
 </g>
</svg>