<svg width="600" height="450" xmlns="http://www.w3.org/2000/svg">
 <style type="text/css">.st0{opacity:0.2;fill:#11A02E;}
	.st1{fill:#30B7C1;}
	.st2{opacity:0.2;}
	.st3{fill:#FFFFFF;}
	.st4{fill:#002642;}</style>

 <g>
  <title>background</title>
  <rect fill="none" id="canvas_background" height="452" width="602" y="-1" x="-1"/>
 </g>
 <g>
  <title>Layer 1</title>
  <g id="svg_1">
   <path id="svg_2" d="m592,118.1l-283.7,283.7c-4,4 -10.4,4 -14.3,0l-191.2,-191.2c-4,-4 -4,-10.4 0,-14.3l60.9,-60.9c4,-4 10.4,-4 14.3,0l116,116c4,4 10.4,4 14.3,0l208.5,-208.4c4,-4 10.4,-4 14.3,0l60.9,60.9c3.9,3.9 3.9,10.3 0,14.2z" class="st0"/>
   <g id="svg_3">
    <g id="svg_4">
     <g id="svg_5">
      <g id="svg_6">
       <rect id="svg_7" height="3" width="0.4" class="st1" y="165.4" x="238.6"/>
      </g>
      <g id="svg_8">
       <path id="svg_9" d="m396.9,280.1l0,-159.1c0,-3.2 -1.3,-6.1 -3.4,-8.2c-2.1,-2.2 -5.1,-3.5 -8.4,-3.4c-0.5,0 -0.9,0 -1.4,0.1c-5.8,0.8 -10.2,5.9 -10.2,11.9l0,17.6l-24.8,0l0,-1.5c0,-3.3 -2.7,-5.9 -5.9,-5.9c-0.5,0 -1,0.1 -1.5,0.2c-2.5,0.7 -4.4,3 -4.4,5.7l0,1.5l-3.5,0l0,-1.5c0,-3.3 -2.6,-5.9 -5.9,-5.9c-0.5,0 -1,0.1 -1.5,0.2c-2.5,0.7 -4.4,3 -4.4,5.7l0,1.5l-3.5,0l0,-1.5c0,-3.3 -2.6,-5.9 -5.9,-5.9c-0.5,0 -1,0.1 -1.5,0.2c-2.5,0.7 -4.4,3 -4.4,5.7l0,1.5l-3.4,0l0,-1.5c0,-3.3 -2.6,-5.9 -5.9,-5.9c-0.5,0 -1,0.1 -1.5,0.2c-2.5,0.7 -4.4,3 -4.4,5.7l0,1.5l-52.1,0l0,-18c0,-3.2 -1.3,-6.1 -3.4,-8.2c-2.1,-2.2 -5.1,-3.5 -8.4,-3.4c-0.5,0 -0.9,0 -1.4,0.1c-5.8,0.8 -10.2,5.9 -10.2,11.9l0,158.8c0,0.1 0,0.2 0,0.2l23.4,0c0,-0.1 0,-0.2 0,-0.2l0,-32.4l-0.4,0l0,-3l0.4,0l0,-23.4l-0.4,0l0,-3l0.4,0l0,-23.4l25,0l0,1.5c0,2.7 1.9,5 4.4,5.7c0.5,0.1 1,0.2 1.5,0.2c3.3,0 5.9,-2.6 5.9,-5.9l0,-1.5l3.5,0l0,1.5c0,2.7 1.9,5 4.4,5.7c0.5,0.1 1,0.2 1.5,0.2c3.3,0 5.9,-2.6 5.9,-5.9l0,-1.5l30.5,0l0,1.5c0,2.7 1.9,5 4.4,5.7c0.5,0.1 1,0.2 1.5,0.2c3.3,0 5.9,-2.6 5.9,-5.9l0,-1.5l3.5,0l0,1.5c0,2.7 1.9,5 4.4,5.7c0.5,0.1 1,0.2 1.5,0.2c3.3,0 5.9,-2.6 5.9,-5.9l0,-1.5l24.8,0l0,23.4l-24.8,0l0,-1.5c0,-3.3 -2.7,-5.9 -5.9,-5.9c-0.5,0 -1,0.1 -1.5,0.2c-2.5,0.7 -4.4,3 -4.4,5.7l0,1.5l-30.5,0l0,-1.5c0,-3.3 -2.6,-5.9 -5.9,-5.9c-0.5,0 -1,0.1 -1.5,0.2c-2.5,0.7 -4.4,3 -4.4,5.7l0,1.5l-3.5,0l0,-1.5c0,-3.3 -2.6,-5.9 -5.9,-5.9c-0.5,0 -1,0.1 -1.5,0.2c-2.5,0.7 -4.4,3 -4.4,5.7l0,1.5l-3.5,0l0,-1.5c0,-3.3 -2.6,-5.9 -5.9,-5.9c-0.5,0 -1,0.1 -1.5,0.2c-2.5,0.7 -4.4,3 -4.4,5.7l0,1.5l-25,0l0,3l25,0l0,1.5c0,2.7 1.9,5 4.4,5.7c0.5,0.1 1,0.2 1.5,0.2c3.3,0 5.9,-2.7 5.9,-5.9l0,-1.5l3.5,0l0,1.5c0,2.7 1.9,5 4.4,5.7c0.5,0.1 1,0.2 1.5,0.2c3.3,0 5.9,-2.7 5.9,-5.9l0,-1.5l3.5,0l0,1.5c0,2.7 1.9,5 4.4,5.7c0.5,0.1 1,0.2 1.5,0.2c3.3,0 5.9,-2.7 5.9,-5.9l0,-1.5l30.6,0l0,1.5c0,2.7 1.9,5 4.4,5.7c0.5,0.1 1,0.2 1.5,0.2c3.3,0 5.9,-2.7 5.9,-5.9l0,-1.5l24.8,0l0,23.4l-51.8,0l0,-1.5c0,-3.3 -2.6,-5.9 -5.9,-5.9c-0.5,0 -1,0.1 -1.5,0.2c-2.5,0.7 -4.4,3 -4.4,5.7l0,1.5l-3.5,0l0,-1.5c0,-3.3 -2.7,-5.9 -5.9,-5.9c-0.5,0 -1,0.1 -1.5,0.2c-2.5,0.7 -4.4,3 -4.4,5.7l0,1.5l-3.5,0l0,-1.5c0,-3.3 -2.6,-5.9 -5.9,-5.9c-0.5,0 -1,0.1 -1.5,0.2c-2.5,0.7 -4.4,3 -4.4,5.7l0,1.5l-3.5,0l0,-1.5c0,-3.3 -2.6,-5.9 -5.9,-5.9c-0.5,0 -1,0.1 -1.5,0.2c-2.5,0.7 -4.4,3 -4.4,5.7l0,1.5l-25,0l0,3l25,0l0,1.5c0,2.7 1.9,5 4.4,5.7c0.5,0.1 1,0.2 1.5,0.2c3.3,0 5.9,-2.7 5.9,-5.9l0,-1.5l3.5,0l0,1.5c0,2.7 1.9,5 4.4,5.7c0.5,0.1 1,0.2 1.5,0.2c3.3,0 5.9,-2.7 5.9,-5.9l0,-1.5l3.5,0l0,1.5c0,2.7 1.8,5 4.4,5.7c0.5,0.1 1,0.2 1.5,0.2c3.3,0 5.9,-2.7 5.9,-5.9l0,-1.5l3.5,0l0,1.5c0,2.7 1.9,5 4.4,5.7c0.5,0.1 1,0.2 1.5,0.2c3.3,0 5.9,-2.7 5.9,-5.9l0,-1.5l51.8,0l0,32.4c0,0.1 0,0.2 0,0.2l23.4,0c-0.1,-0.1 -0.1,-0.2 -0.1,-0.3zm-23.3,-114.7l-24.8,0l0,-1.4c0,-3.3 -2.7,-5.9 -5.9,-5.9c-0.5,0 -1,0.1 -1.5,0.2c-2.5,0.7 -4.4,3 -4.4,5.7l0,1.5l-3.5,0l0,-1.5c0,-3.3 -2.6,-5.9 -5.9,-5.9c-0.5,0 -1,0.1 -1.5,0.2c-2.5,0.7 -4.4,3 -4.4,5.7l0,1.5l-3.5,0l0,-1.5c0,-3.3 -2.6,-5.9 -5.9,-5.9c-0.5,0 -1,0.1 -1.5,0.2c-2.5,0.7 -4.4,3 -4.4,5.7l0,1.5l-30.5,0l0,-1.5c0,-3.3 -2.6,-5.9 -5.9,-5.9c-0.5,0 -1,0.1 -1.5,0.2c-2.5,0.7 -4.4,3 -4.4,5.7l0,1.5l-25,0l0,3l25,0l0,1.5c0,2.7 1.9,5 4.4,5.7c0.5,0.1 1,0.2 1.5,0.2c3.3,0 5.9,-2.7 5.9,-5.9l0,-1.5l30.5,0l0,1.5c0,2.7 1.9,5 4.4,5.7c0.5,0.1 1,0.2 1.5,0.2c3.3,0 5.9,-2.7 5.9,-5.9l0,-1.5l3.5,0l0,1.5c0,2.7 1.9,5 4.4,5.7c0.5,0.1 1,0.2 1.5,0.2c3.3,0 5.9,-2.7 5.9,-5.9l0,-1.5l3.5,0l0,1.5c0,2.7 1.9,5 4.4,5.7c0.5,0.1 1,0.2 1.5,0.2c3.3,0 5.9,-2.7 5.9,-5.9l0,-1.5l24.8,0l0,23.4l-24.8,0l0,-1.5c0,-3.3 -2.7,-5.9 -5.9,-5.9c-0.5,0 -1,0.1 -1.5,0.2c-2.5,0.7 -4.4,3 -4.4,5.7l0,1.5l-3.5,0l0,-1.5c0,-3.3 -2.6,-5.9 -5.9,-5.9c-0.5,0 -1,0.1 -1.5,0.2c-2.5,0.7 -4.4,3 -4.4,5.7l0,1.5l-30.5,0l0,-1.5c0,-3.3 -2.6,-5.9 -5.9,-5.9c-0.5,0 -1,0.1 -1.5,0.2c-2.5,0.7 -4.4,3 -4.4,5.7l0,1.5l-3.5,0l0,-1.5c0,-3.3 -2.6,-5.9 -5.9,-5.9c-0.5,0 -1,0.1 -1.5,0.2c-2.5,0.7 -4.4,3 -4.4,5.7l0,1.5l-25,0l0,-23.4l-0.4,0l0,-3l0.4,0l0,-23.5l52.1,0l0,1.5c0,2.7 1.9,5 4.4,5.7c0.5,0.1 1,0.2 1.5,0.2c3.3,0 5.9,-2.6 5.9,-5.9l0,-1.5l3.4,0l0,1.5c0,2.7 1.9,5 4.4,5.7c0.5,0.1 1,0.2 1.5,0.2c3.3,0 5.9,-2.6 5.9,-5.9l0,-1.5l3.5,0l0,1.5c0,2.7 1.9,5 4.4,5.7c0.5,0.1 1,0.2 1.5,0.2c3.3,0 5.9,-2.6 5.9,-5.9l0,-1.5l3.5,0l0,1.5c0,2.7 1.9,5 4.4,5.7c0.5,0.1 1,0.2 1.5,0.2c3.3,0 5.9,-2.6 5.9,-5.9l0,-1.5l24.8,0l0,23.4z" class="st1"/>
       <rect id="svg_10" height="3" width="0.4" class="st1" y="218.3" x="238.6"/>
      </g>
      <g id="svg_11">
       <rect id="svg_12" height="3" width="0.4" class="st1" y="244.7" x="238.6"/>
      </g>
     </g>
     <rect id="svg_13" height="3" width="0.4" class="st1" y="165.4" x="238.6"/>
     <rect id="svg_14" height="3" width="0.4" class="st1" y="218.3" x="238.6"/>
     <rect id="svg_15" height="3" width="0.4" class="st1" y="244.7" x="238.6"/>
    </g>
    <g id="svg_16" class="st2">
     <g id="svg_17">
      <g id="svg_18">
       <rect id="svg_19" height="3" width="0.4" class="st3" y="165.4" x="235.5"/>
      </g>
      <g id="svg_20">
       <path id="svg_21" d="m235.9,165.4l0,3l2.7,0l0,-3l-2.7,0zm0,0l0,3l2.7,0l0,-3l-2.7,0zm0,0l0,3l2.7,0l0,-3l-2.7,0zm0,0l0,3l2.7,0l0,-3l-2.7,0zm0,0l0,3l2.7,0l0,-3l-2.7,0zm0,0l0,3l2.7,0l0,-3l-2.7,0zm0,0l0,3l2.7,0l0,-3l-2.7,0zm0,0l0,3l2.7,0l0,-3l-2.7,0zm0,0l0,3l2.7,0l0,-3l-2.7,0zm0,0l0,3l2.7,0l0,-3l-2.7,0zm0,0l0,3l2.7,0l0,-3l-2.7,0zm0,0l0,3l2.7,0l0,-3l-2.7,0zm0,0l0,3l2.7,0l0,-3l-2.7,0zm0,0l0,3l2.7,0l0,-3l-2.7,0zm0,0l0,3l2.7,0l0,-3l-2.7,0zm0,0l0,3l2.7,0l0,-3l-2.7,0zm0,0l0,3l2.7,0l0,-3l-2.7,0zm0,0l0,3l2.7,0l0,-3l-2.7,0zm0,0l0,3l2.7,0l0,-3l-2.7,0zm0,0l0,3l2.7,0l0,-3l-2.7,0zm0,0l0,3l2.7,0l0,-3l-2.7,0zm0,0l0,3l2.7,0l0,-3l-2.7,0zm0,0l0,3l2.7,0l0,-3l-2.7,0zm0,0l0,3l2.7,0l0,-3l-2.7,0zm0,0l0,3l2.7,0l0,-3l-2.7,0zm0,0l0,3l2.7,0l0,-3l-2.7,0zm0,0l0,3l2.7,0l0,-3l-2.7,0zm0,0l0,3l2.7,0l0,-3l-2.7,0zm0,0l0,3l2.7,0l0,-3l-2.7,0zm0,0l0,3l2.7,0l0,-3l-2.7,0zm0,0l0,3l2.7,0l0,-3l-2.7,0zm0,0l0,3l2.7,0l0,-3l-2.7,0zm0,0l0,3l2.7,0l0,-3l-2.7,0zm0,0l0,3l2.7,0l0,-3l-2.7,0zm0,0l0,3l2.7,0l0,-3l-2.7,0zm0,0l0,3l2.7,0l0,-3l-2.7,0zm0,0l0,3l2.7,0l0,-3l-2.7,0zm0,0l0,3l2.7,0l0,-3l-2.7,0zm0,0l0,3l2.7,0l0,-3l-2.7,0zm0,0l0,3l2.7,0l0,-3l-2.7,0zm0,0l0,3l2.7,0l0,-3l-2.7,0zm0,0l0,3l2.7,0l0,-3l-2.7,0zm0,0l0,3l2.7,0l0,-3l-2.7,0zm0,0l0,3l2.7,0l0,-3l-2.7,0zm0,0l0,3l2.7,0l0,-3l-2.7,0zm0,0l0,3l2.7,0l0,-3l-2.7,0zm0,0l0,3l2.7,0l0,-3l-2.7,0zm0,0l0,3l2.7,0l0,-3l-2.7,0zm0,0l0,3l2.7,0l0,-3l-2.7,0z" class="st3"/>
       <path id="svg_22" d="m373.6,280.3l20.3,0c0,-0.1 0,-0.2 0,-0.2l0,-159.1c0,-3.2 -1.3,-6.1 -3.4,-8.2c-1.8,-1.8 -4.1,-3 -6.7,-3.3c-5.8,0.8 -10.2,5.9 -10.2,11.9l0,17.6l-27.9,0l0,-1.5c0,-2.7 -1.9,-5 -4.4,-5.7c-2.5,0.7 -4.4,3 -4.4,5.7l0,1.5l-6.6,0l0,-1.5c0,-2.7 -1.8,-5 -4.4,-5.7c-2.5,0.7 -4.4,3 -4.4,5.7l0,1.5l-6.6,0l0,-1.5c0,-2.7 -1.8,-5 -4.4,-5.7c-2.5,0.7 -4.4,3 -4.4,5.7l0,1.5l-6.5,0l0,-1.5c0,-2.7 -1.8,-5 -4.4,-5.7c-2.5,0.7 -4.4,3 -4.4,5.7l0,1.5l-55.2,0l0,-18c0,-3.2 -1.3,-6.1 -3.4,-8.2c-1.8,-1.8 -4.1,-3 -6.7,-3.3c-5.8,0.8 -10.2,5.9 -10.2,11.9l0,158.8c0,0.1 0,0.2 0,0.2l20.3,0c0,-0.1 0,-0.2 0,-0.2l0,-32.4l28.4,0l0,1.5c0,2.7 1.9,5 4.4,5.7c2.5,-0.7 4.4,-3 4.4,-5.7l0,-1.5l6.6,0l0,1.5c0,2.7 1.9,5 4.4,5.7c2.5,-0.7 4.4,-3 4.4,-5.7l0,-1.5l6.6,0l0,1.5c0,2.7 1.8,5 4.4,5.7c2.5,-0.7 4.4,-3 4.4,-5.7l0,-1.5l6.6,0l0,1.5c0,2.7 1.9,5 4.4,5.7c2.5,-0.7 4.4,-3 4.4,-5.7l0,-1.5l54.9,0l0,32.4c-0.3,0 -0.3,0.1 -0.3,0.1zm0,-62l-27.9,0l0,-1.5c0,-2.7 -1.9,-5 -4.4,-5.7c-2.5,0.7 -4.4,3 -4.4,5.7l0,1.5l-33.6,0l0,-1.5c0,-2.7 -1.8,-5 -4.4,-5.7c-2.5,0.7 -4.4,3 -4.4,5.7l0,1.5l-6.6,0l0,-1.5c0,-2.7 -1.9,-5 -4.4,-5.7c-2.5,0.7 -4.4,3 -4.4,5.7l0,1.5l-6.6,0l0,-1.5c0,-2.7 -1.8,-5 -4.4,-5.7c-2.5,0.7 -4.4,3 -4.4,5.7l0,1.5l-28.1,0l0,-23.4l28.4,0l0,1.5c0,2.7 1.9,5 4.4,5.7c2.5,-0.7 4.4,-3 4.4,-5.7l0,-1.5l6.6,0l0,1.5c0,2.7 1.9,5 4.4,5.7c2.5,-0.7 4.4,-3 4.4,-5.7l0,-1.5l33.6,0l0,1.5c0,2.7 1.9,5 4.4,5.7c2.5,-0.7 4.4,-3 4.4,-5.7l0,-1.5l6.6,0l0,1.5c0,2.7 1.9,5 4.4,5.7c2.5,-0.7 4.4,-3 4.4,-5.7l0,-1.5l27.9,0l0,23.4l-0.3,0zm-138.1,-52.9l0.4,0l0,-23.4l55.2,0l0,1.5c0,2.7 1.9,5 4.4,5.7c2.5,-0.7 4.4,-3 4.4,-5.7l0,-1.5l6.5,0l0,1.5c0,2.7 1.9,5 4.4,5.7c2.5,-0.7 4.4,-3 4.4,-5.7l0,-1.5l6.6,0l0,1.5c0,2.7 1.9,5 4.4,5.7c2.5,-0.7 4.4,-3 4.4,-5.7l0,-1.5l6.6,0l0,1.5c0,2.7 1.9,5 4.4,5.7c2.5,-0.7 4.4,-3 4.4,-5.7l0,-1.5l27.9,0l0,23.4l-27.9,0l0,-1.4c0,-2.7 -1.9,-5 -4.4,-5.7c-2.5,0.7 -4.4,3 -4.4,5.7l0,1.5l-6.6,0l0,-1.5c0,-2.7 -1.8,-5 -4.4,-5.7c-2.5,0.7 -4.4,3 -4.4,5.7l0,1.5l-6.6,0l0,-1.5c0,-2.7 -1.8,-5 -4.4,-5.7c-2.5,0.7 -4.4,3 -4.4,5.7l0,1.5l-33.6,0l0,-1.5c0,-2.7 -1.8,-5 -4.4,-5.7c-2.5,0.7 -4.4,3 -4.4,5.7l0,1.5l-25.4,0l0,3l25.4,0l0,1.5c0,2.7 1.9,5 4.4,5.7c2.5,-0.7 4.4,-3 4.4,-5.7l0,-1.5l33.6,0l0,1.5c0,2.7 1.9,5 4.4,5.7c2.5,-0.7 4.4,-3 4.4,-5.7l0,-1.5l6.6,0l0,1.5c0,2.7 1.9,5 4.4,5.7c2.5,-0.7 4.4,-3 4.4,-5.7l0,-1.5l6.6,0l0,1.5c0,2.7 1.9,5 4.4,5.7c2.5,-0.7 4.4,-3 4.4,-5.7l0,-1.5l27.9,0l0,23.4l-27.9,0l0,-1.5c0,-2.7 -1.9,-5 -4.4,-5.7c-2.5,0.7 -4.4,3 -4.4,5.7l0,1.5l-6.6,0l0,-1.5c0,-2.7 -1.8,-5 -4.4,-5.7c-2.5,0.7 -4.4,3 -4.4,5.7l0,1.5l-33.6,0l0,-1.5c0,-2.7 -1.9,-5 -4.4,-5.7c-2.5,0.7 -4.4,3 -4.4,5.7l0,1.5l-6.6,0l0,-1.5c0,-2.7 -1.8,-5 -4.4,-5.7c-2.5,0.7 -4.4,3 -4.4,5.7l0,1.5l-28.1,0l0,-23.4l-0.4,0l0,-3.1zm83.2,79.3l0,-1.5c0,-2.7 -1.8,-5 -4.4,-5.7c-2.5,0.7 -4.4,3 -4.4,5.7l0,1.5l-6.6,0l0,-1.5c0,-2.7 -1.9,-5 -4.4,-5.7c-2.5,0.7 -4.4,3 -4.4,5.7l0,1.5l-6.6,0l0,-1.5c0,-2.7 -1.9,-5 -4.4,-5.7c-2.5,0.7 -4.4,3 -4.4,5.7l0,1.5l-6.6,0l0,-1.5c0,-2.7 -1.8,-5 -4.4,-5.7c-2.5,0.7 -4.4,3 -4.4,5.7l0,1.5l-28.1,0l0,-23.4l28.4,0l0,1.5c0,2.7 1.9,5 4.4,5.7c2.5,-0.7 4.4,-3 4.4,-5.7l0,-1.5l6.6,0l0,1.5c0,2.7 1.9,5 4.4,5.7c2.5,-0.7 4.4,-3 4.4,-5.7l0,-1.5l6.6,0l0,1.5c0,2.7 1.9,5 4.4,5.7c2.5,-0.7 4.4,-3 4.4,-5.7l0,-1.5l33.4,0l0,1.5c0,2.7 1.9,5 4.4,5.7c2.5,-0.7 4.4,-3 4.4,-5.7l0,-1.5l27.9,0l0,23.4l-55,0z" class="st3"/>
      </g>
     </g>
     <rect id="svg_23" height="3" width="0.4" class="st3" y="165.4" x="235.5"/>
    </g>
   </g>
   <path id="svg_24" d="m495.7,291.4l-389.7,0c-1.9,0 -3.4,-1.5 -3.4,-3.4l0,-5.7c0,-1.9 1.5,-3.4 3.4,-3.4l389.8,0c1.9,0 3.4,1.5 3.4,3.4l0,5.7c0,1.9 -1.6,3.4 -3.5,3.4z" class="st4"/>
  </g>
 </g>
</svg>